ply
format ascii 1.0
element vertex 900
property float x
property float y
property float z
property uchar red
property uchar green
property uchar blue
property uchar alpha
end_header
175 -175 -450 210 210 210 255
175 -175 -434.483 210 210 210 255
175 -175 -418.966 210 210 210 255
175 -175 -403.448 210 210 210 255
175 -175 -387.931 210 210 210 255
175 -175 -372.414 210 210 210 255
175 -175 -356.897 210 210 210 255
175 -175 -341.379 210 210 210 255
175 -175 -325.862 210 210 210 255
175 -175 -310.345 210 210 210 255
175 -175 -294.828 210 210 210 255
175 -175 -279.31 210 210 210 255
175 -175 -263.793 210 210 210 255
175 -175 -248.276 210 210 210 255
175 -175 -232.759 210 210 210 255
175 -175 -217.241 210 210 210 255
175 -175 -201.724 210 210 210 255
175 -175 -186.207 210 210 210 255
175 -175 -170.69 210 210 210 255
175 -175 -155.172 210 210 210 255
175 -175 -139.655 210 210 210 255
175 -175 -124.138 210 210 210 255
175 -175 -108.621 210 210 210 255
175 -175 -93.1035 210 210 210 255
175 -175 -77.5862 210 210 210 255
175 -175 -62.069 210 210 210 255
175 -175 -46.5518 210 210 210 255
175 -175 -31.0345 210 210 210 255
175 -175 -15.5172 210 210 210 255
175 -175 0 210 210 210 255
175 -162.931 -450 210 210 210 255
175 -162.931 -434.483 210 210 210 255
175 -162.931 -418.966 210 210 210 255
175 -162.931 -403.448 210 210 210 255
175 -162.931 -387.931 210 210 210 255
175 -162.931 -372.414 210 210 210 255
175 -162.931 -356.897 210 210 210 255
175 -162.931 -341.379 210 210 210 255
175 -162.931 -325.862 210 210 210 255
175 -162.931 -310.345 210 210 210 255
175 -162.931 -294.827 210 210 210 255
175 -162.931 -279.31 210 210 210 255
175 -162.931 -263.793 210 210 210 255
175 -162.931 -248.276 210 210 210 255
175 -162.931 -232.759 210 210 210 255
175 -162.931 -217.241 210 210 210 255
175 -162.931 -201.724 210 210 210 255
175 -162.931 -186.207 210 210 210 255
175 -162.931 -170.69 210 210 210 255
175 -162.931 -155.172 210 210 210 255
175 -162.931 -139.655 210 210 210 255
175 -162.931 -124.138 210 210 210 255
175 -162.931 -108.621 210 210 210 255
175 -162.931 -93.1035 210 210 210 255
175 -162.931 -77.5863 210 210 210 255
175 -162.931 -62.0688 210 210 210 255
175 -162.931 -46.5518 210 210 210 255
175 -162.931 -31.0344 210 210 210 255
175 -162.931 -15.5171 210 210 210 255
175 -162.931 0 210 210 210 255
175 -150.862 -450 210 210 210 255
175 -150.862 -434.483 210 210 210 255
175 -150.862 -418.966 210 210 210 255
175 -150.862 -403.448 210 210 210 255
175 -150.862 -387.931 210 210 210 255
175 -150.862 -372.414 210 210 210 255
175 -150.862 -356.896 210 210 210 255
175 -150.862 -341.379 210 210 210 255
175 -150.862 -325.862 210 210 210 255
175 -150.862 -310.345 210 210 210 255
175 -150.862 -294.828 210 210 210 255
175 -150.862 -279.31 210 210 210 255
175 -150.862 -263.793 210 210 210 255
175 -150.862 -248.276 210 210 210 255
175 -150.862 -232.759 210 210 210 255
175 -150.862 -217.241 210 210 210 255
175 -150.862 -201.724 210 210 210 255
175 -150.862 -186.207 210 210 210 255
175 -150.862 -170.69 210 210 210 255
175 -150.862 -155.172 210 210 210 255
175 -150.862 -139.655 210 210 210 255
175 -150.862 -124.138 210 210 210 255
175 -150.862 -108.621 210 210 210 255
175 -150.862 -93.1035 210 210 210 255
175 -150.862 -77.5862 210 210 210 255
175 -150.862 -62.0689 210 210 210 255
175 -150.862 -46.5519 210 210 210 255
175 -150.862 -31.0345 210 210 210 255
175 -150.862 -15.5173 210 210 210 255
175 -150.862 6.10352e-05 210 210 210 255
175 -138.793 -450 210 210 210 255
175 -138.793 -434.483 210 210 210 255
175 -138.793 -418.966 210 210 210 255
175 -138.793 -403.448 210 210 210 255
175 -138.793 -387.931 210 210 210 255
175 -138.793 -372.414 210 210 210 255
175 -138.793 -356.897 210 210 210 255
175 -138.793 -341.379 210 210 210 255
175 -138.793 -325.862 210 210 210 255
175 -138.793 -310.345 210 210 210 255
175 -138.793 -294.828 210 210 210 255
175 -138.793 -279.31 210 210 210 255
175 -138.793 -263.793 210 210 210 255
175 -138.793 -248.276 210 210 210 255
175 -138.793 -232.759 210 210 210 255
175 -138.793 -217.241 210 210 210 255
175 -138.793 -201.724 210 210 210 255
175 -138.793 -186.207 210 210 210 255
175 -138.793 -170.69 210 210 210 255
175 -138.793 -155.172 210 210 210 255
175 -138.793 -139.655 210 210 210 255
175 -138.793 -124.138 210 210 210 255
175 -138.793 -108.621 210 210 210 255
175 -138.793 -93.1035 210 210 210 255
175 -138.793 -77.5864 210 210 210 255
175 -138.793 -62.069 210 210 210 255
175 -138.793 -46.5516 210 210 210 255
175 -138.793 -31.0345 210 210 210 255
175 -138.793 -15.5173 210 210 210 255
175 -138.793 0 210 210 210 255
175 -126.724 -450 210 210 210 255
175 -126.724 -434.483 210 210 210 255
175 -126.724 -418.966 210 210 210 255
175 -126.724 -403.448 210 210 210 255
175 -126.724 -387.931 210 210 210 255
175 -126.724 -372.414 210 210 210 255
175 -126.724 -356.897 210 210 210 255
175 -126.724 -341.379 210 210 210 255
175 -126.724 -325.862 210 210 210 255
175 -126.724 -310.345 210 210 210 255
175 -126.724 -294.828 210 210 210 255
175 -126.724 -279.31 210 210 210 255
175 -126.724 -263.793 210 210 210 255
175 -126.724 -248.276 210 210 210 255
175 -126.724 -232.759 210 210 210 255
175 -126.724 -217.241 210 210 210 255
175 -126.724 -201.724 210 210 210 255
175 -126.724 -186.207 210 210 210 255
175 -126.724 -170.69 210 210 210 255
175 -126.724 -155.172 210 210 210 255
175 -126.724 -139.655 210 210 210 255
175 -126.724 -124.138 210 210 210 255
175 -126.724 -108.621 210 210 210 255
175 -126.724 -93.1035 210 210 210 255
175 -126.724 -77.5864 210 210 210 255
175 -126.724 -62.069 210 210 210 255
175 -126.724 -46.5516 210 210 210 255
175 -126.724 -31.0345 210 210 210 255
175 -126.724 -15.5172 210 210 210 255
175 -126.724 6.10352e-05 210 210 210 255
175 -114.655 -450 210 210 210 255
175 -114.655 -434.483 210 210 210 255
175 -114.655 -418.966 210 210 210 255
175 -114.655 -403.448 210 210 210 255
175 -114.655 -387.931 210 210 210 255
175 -114.655 -372.414 210 210 210 255
175 -114.655 -356.897 210 210 210 255
175 -114.655 -341.379 210 210 210 255
175 -114.655 -325.862 210 210 210 255
175 -114.655 -310.345 210 210 210 255
175 -114.655 -294.828 210 210 210 255
175 -114.655 -279.31 210 210 210 255
175 -114.655 -263.793 210 210 210 255
175 -114.655 -248.276 210 210 210 255
175 -114.655 -232.759 210 210 210 255
175 -114.655 -217.241 210 210 210 255
175 -114.655 -201.724 210 210 210 255
175 -114.655 -186.207 210 210 210 255
175 -114.655 -170.69 210 210 210 255
175 -114.655 -155.172 210 210 210 255
175 -114.655 -139.655 210 210 210 255
175 -114.655 -124.138 210 210 210 255
175 -114.655 -108.621 210 210 210 255
175 -114.655 -93.1035 210 210 210 255
175 -114.655 -77.5862 210 210 210 255
175 -114.655 -62.0691 210 210 210 255
175 -114.655 -46.5516 210 210 210 255
175 -114.655 -31.0344 210 210 210 255
175 -114.655 -15.5173 210 210 210 255
175 -114.655 0 210 210 210 255
175 -102.586 -450 210 210 210 255
175 -102.586 -434.483 210 210 210 255
175 -102.586 -418.966 210 210 210 255
175 -102.586 -403.448 210 210 210 255
175 -102.586 -387.931 210 210 210 255
175 -102.586 -372.414 210 210 210 255
175 -102.586 -356.897 210 210 210 255
175 -102.586 -341.379 210 210 210 255
175 -102.586 -325.862 210 210 210 255
175 -102.586 -310.345 210 210 210 255
175 -102.586 -294.828 210 210 210 255
175 -102.586 -279.31 210 210 210 255
175 -102.586 -263.793 210 210 210 255
175 -102.586 -248.276 210 210 210 255
175 -102.586 -232.759 210 210 210 255
175 -102.586 -217.241 210 210 210 255
175 -102.586 -201.724 210 210 210 255
175 -102.586 -186.207 210 210 210 255
175 -102.586 -170.69 210 210 210 255
175 -102.586 -155.172 210 210 210 255
175 -102.586 -139.655 210 210 210 255
175 -102.586 -124.138 210 210 210 255
175 -102.586 -108.621 210 210 210 255
175 -102.586 -93.1035 210 210 210 255
175 -102.586 -77.5861 210 210 210 255
175 -102.586 -62.069 210 210 210 255
175 -102.586 -46.5518 210 210 210 255
175 -102.586 -31.0345 210 210 210 255
175 -102.586 -15.5173 210 210 210 255
175 -102.586 0 210 210 210 255
175 -90.5172 -450 210 210 210 255
175 -90.5172 -434.483 210 210 210 255
175 -90.5172 -418.966 210 210 210 255
175 -90.5172 -403.448 210 210 210 255
175 -90.5172 -387.931 210 210 210 255
175 -90.5172 -372.414 210 210 210 255
175 -90.5172 -356.897 210 210 210 255
175 -90.5172 -341.379 210 210 210 255
175 -90.5172 -325.862 210 210 210 255
175 -90.5172 -310.345 210 210 210 255
175 -90.5172 -294.828 210 210 210 255
175 -90.5172 -279.31 210 210 210 255
175 -90.5172 -263.793 210 210 210 255
175 -90.5172 -248.276 210 210 210 255
175 -90.5172 -232.759 210 210 210 255
175 -90.5172 -217.241 210 210 210 255
175 -90.5172 -201.724 210 210 210 255
175 -90.5172 -186.207 210 210 210 255
175 -90.5172 -170.69 210 210 210 255
175 -90.5172 -155.172 210 210 210 255
175 -90.5172 -139.655 210 210 210 255
175 -90.5172 -124.138 210 210 210 255
175 -90.5172 -108.621 210 210 210 255
175 -90.5172 -93.1035 210 210 210 255
175 -90.5172 -77.5862 210 210 210 255
175 -90.5172 -62.069 210 210 210 255
175 -90.5172 -46.5518 210 210 210 255
175 -90.5172 -31.0345 210 210 210 255
175 -90.5172 -15.5172 210 210 210 255
175 -90.5172 0 210 210 210 255
175 -78.4483 -450 210 210 210 255
175 -78.4483 -434.483 210 210 210 255
175 -78.4483 -418.966 210 210 210 255
175 -78.4483 -403.448 210 210 210 255
175 -78.4483 -387.931 210 210 210 255
175 -78.4483 -372.414 210 210 210 255
175 -78.4483 -356.897 210 210 210 255
175 -78.4483 -341.379 210 210 210 255
175 -78.4483 -325.862 210 210 210 255
175 -78.4483 -310.345 210 210 210 255
175 -78.4483 -294.828 210 210 210 255
175 -78.4483 -279.31 210 210 210 255
175 -78.4483 -263.793 210 210 210 255
175 -78.4483 -248.276 210 210 210 255
175 -78.4483 -232.759 210 210 210 255
175 -78.4483 -217.241 210 210 210 255
175 -78.4483 -201.724 210 210 210 255
175 -78.4483 -186.207 210 210 210 255
175 -78.4483 -170.69 210 210 210 255
175 -78.4483 -155.172 210 210 210 255
175 -78.4483 -139.655 210 210 210 255
175 -78.4483 -124.138 210 210 210 255
175 -78.4483 -108.621 210 210 210 255
175 -78.4483 -93.1035 210 210 210 255
175 -78.4483 -77.5862 210 210 210 255
175 -78.4483 -62.0691 210 210 210 255
175 -78.4483 -46.5516 210 210 210 255
175 -78.4483 -31.0345 210 210 210 255
175 -78.4483 -15.5173 210 210 210 255
175 -78.4483 0 210 210 210 255
175 -66.3793 -450 210 210 210 255
175 -66.3793 -434.483 210 210 210 255
175 -66.3793 -418.966 210 210 210 255
175 -66.3793 -403.448 210 210 210 255
175 -66.3793 -387.931 210 210 210 255
175 -66.3793 -372.414 210 210 210 255
175 -66.3793 -356.897 210 210 210 255
175 -66.3793 -341.379 210 210 210 255
175 -66.3793 -325.862 210 210 210 255
175 -66.3793 -310.345 210 210 210 255
175 -66.3793 -294.828 210 210 210 255
175 -66.3793 -279.31 210 210 210 255
175 -66.3793 -263.793 210 210 210 255
175 -66.3793 -248.276 210 210 210 255
175 -66.3793 -232.759 210 210 210 255
175 -66.3793 -217.241 210 210 210 255
175 -66.3793 -201.724 210 210 210 255
175 -66.3793 -186.207 210 210 210 255
175 -66.3793 -170.69 210 210 210 255
175 -66.3793 -155.172 210 210 210 255
175 -66.3793 -139.655 210 210 210 255
175 -66.3793 -124.138 210 210 210 255
175 -66.3793 -108.621 210 210 210 255
175 -66.3793 -93.1035 210 210 210 255
175 -66.3793 -77.5861 210 210 210 255
175 -66.3793 -62.0689 210 210 210 255
175 -66.3793 -46.5518 210 210 210 255
175 -66.3793 -31.0345 210 210 210 255
175 -66.3793 -15.5172 210 210 210 255
175 -66.3793 0 210 210 210 255
175 -54.3104 -450 210 210 210 255
175 -54.3104 -434.483 210 210 210 255
175 -54.3104 -418.966 210 210 210 255
175 -54.3104 -403.448 210 210 210 255
175 -54.3104 -387.931 210 210 210 255
175 -54.3104 -372.414 210 210 210 255
175 -54.3104 -356.897 210 210 210 255
175 -54.3104 -341.379 210 210 210 255
175 -54.3104 -325.862 210 210 210 255
175 -54.3104 -310.345 210 210 210 255
175 -54.3104 -294.828 210 210 210 255
175 -54.3104 -279.31 210 210 210 255
175 -54.3104 -263.793 210 210 210 255
175 -54.3104 -248.276 210 210 210 255
175 -54.3104 -232.759 210 210 210 255
175 -54.3104 -217.241 210 210 210 255
175 -54.3104 -201.724 210 210 210 255
175 -54.3104 -186.207 210 210 210 255
175 -54.3104 -170.69 210 210 210 255
175 -54.3104 -155.172 210 210 210 255
175 -54.3104 -139.655 210 210 210 255
175 -54.3104 -124.138 210 210 210 255
175 -54.3104 -108.621 210 210 210 255
175 -54.3104 -93.1034 210 210 210 255
175 -54.3104 -77.5863 210 210 210 255
175 -54.3104 -62.0689 210 210 210 255
175 -54.3104 -46.5518 210 210 210 255
175 -54.3104 -31.0345 210 210 210 255
175 -54.3104 -15.5172 210 210 210 255
175 -54.3104 0 210 210 210 255
175 -42.2414 -450 210 210 210 255
175 -42.2414 -434.483 210 210 210 255
175 -42.2414 -418.966 210 210 210 255
175 -42.2414 -403.448 210 210 210 255
175 -42.2414 -387.931 210 210 210 255
175 -42.2414 -372.414 210 210 210 255
175 -42.2414 -356.897 210 210 210 255
175 -42.2414 -341.379 210 210 210 255
175 -42.2414 -325.862 210 210 210 255
175 -42.2414 -310.345 210 210 210 255
175 -42.2414 -294.828 210 210 210 255
175 -42.2414 -279.31 210 210 210 255
175 -42.2414 -263.793 210 210 210 255
175 -42.2414 -248.276 210 210 210 255
175 -42.2414 -232.759 210 210 210 255
175 -42.2414 -217.241 210 210 210 255
175 -42.2414 -201.724 210 210 210 255
175 -42.2414 -186.207 210 210 210 255
175 -42.2414 -170.69 210 210 210 255
175 -42.2414 -155.172 210 210 210 255
175 -42.2414 -139.655 210 210 210 255
175 -42.2414 -124.138 210 210 210 255
175 -42.2414 -108.621 210 210 210 255
175 -42.2414 -93.1035 210 210 210 255
175 -42.2414 -77.5862 210 210 210 255
175 -42.2414 -62.069 210 210 210 255
175 -42.2414 -46.5518 210 210 210 255
175 -42.2414 -31.0345 210 210 210 255
175 -42.2414 -15.5173 210 210 210 255
175 -42.2414 0 210 210 210 255
175 -30.1724 -450 210 210 210 255
175 -30.1724 -434.483 210 210 210 255
175 -30.1724 -418.966 210 210 210 255
175 -30.1724 -403.448 210 210 210 255
175 -30.1724 -387.931 210 210 210 255
175 -30.1724 -372.414 210 210 210 255
175 -30.1724 -356.897 210 210 210 255
175 -30.1724 -341.379 210 210 210 255
175 -30.1724 -325.862 210 210 210 255
175 -30.1724 -310.345 210 210 210 255
175 -30.1724 -294.828 210 210 210 255
175 -30.1724 -279.31 210 210 210 255
175 -30.1724 -263.793 210 210 210 255
175 -30.1724 -248.276 210 210 210 255
175 -30.1724 -232.759 210 210 210 255
175 -30.1724 -217.241 210 210 210 255
175 -30.1724 -201.724 210 210 210 255
175 -30.1724 -186.207 210 210 210 255
175 -30.1724 -170.69 210 210 210 255
175 -30.1724 -155.172 210 210 210 255
175 -30.1724 -139.655 210 210 210 255
175 -30.1724 -124.138 210 210 210 255
175 -30.1724 -108.621 210 210 210 255
175 -30.1724 -93.1035 210 210 210 255
175 -30.1724 -77.5862 210 210 210 255
175 -30.1724 -62.069 210 210 210 255
175 -30.1724 -46.5518 210 210 210 255
175 -30.1724 -31.0344 210 210 210 255
175 -30.1724 -15.5171 210 210 210 255
175 -30.1724 6.10352e-05 210 210 210 255
175 -18.1035 -450 210 210 210 255
175 -18.1035 -434.483 210 210 210 255
175 -18.1035 -418.966 210 210 210 255
175 -18.1035 -403.448 210 210 210 255
175 -18.1035 -387.931 210 210 210 255
175 -18.1035 -372.414 210 210 210 255
175 -18.1035 -356.897 210 210 210 255
175 -18.1035 -341.379 210 210 210 255
175 -18.1035 -325.862 210 210 210 255
175 -18.1035 -310.345 210 210 210 255
175 -18.1035 -294.828 210 210 210 255
175 -18.1035 -279.31 210 210 210 255
175 -18.1035 -263.793 210 210 210 255
175 -18.1035 -248.276 210 210 210 255
175 -18.1035 -232.759 210 210 210 255
175 -18.1035 -217.241 210 210 210 255
175 -18.1035 -201.724 210 210 210 255
175 -18.1035 -186.207 210 210 210 255
175 -18.1035 -170.69 210 210 210 255
175 -18.1035 -155.172 210 210 210 255
175 -18.1035 -139.655 210 210 210 255
175 -18.1035 -124.138 210 210 210 255
175 -18.1035 -108.621 210 210 210 255
175 -18.1035 -93.1034 210 210 210 255
175 -18.1035 -77.5863 210 210 210 255
175 -18.1035 -62.0689 210 210 210 255
175 -18.1035 -46.5518 210 210 210 255
175 -18.1035 -31.0345 210 210 210 255
175 -18.1035 -15.5172 210 210 210 255
175 -18.1035 0 210 210 210 255
175 -6.03448 -450 210 210 210 255
175 -6.03448 -434.483 210 210 210 255
175 -6.03448 -418.966 210 210 210 255
175 -6.03448 -403.448 210 210 210 255
175 -6.03448 -387.931 210 210 210 255
175 -6.03448 -372.414 210 210 210 255
175 -6.03448 -356.897 210 210 210 255
175 -6.03448 -341.379 210 210 210 255
175 -6.03448 -325.862 210 210 210 255
175 -6.03448 -310.345 210 210 210 255
175 -6.03448 -294.828 210 210 210 255
175 -6.03448 -279.31 210 210 210 255
175 -6.03448 -263.793 210 210 210 255
175 -6.03448 -248.276 210 210 210 255
175 -6.03448 -232.759 210 210 210 255
175 -6.03448 -217.241 210 210 210 255
175 -6.03448 -201.724 210 210 210 255
175 -6.03448 -186.207 210 210 210 255
175 -6.03448 -170.69 210 210 210 255
175 -6.03448 -155.172 210 210 210 255
175 -6.03448 -139.655 210 210 210 255
175 -6.03448 -124.138 210 210 210 255
175 -6.03448 -108.621 210 210 210 255
175 -6.03448 -93.1035 210 210 210 255
175 -6.03448 -77.5862 210 210 210 255
175 -6.03448 -62.069 210 210 210 255
175 -6.03448 -46.5517 210 210 210 255
175 -6.03448 -31.0345 210 210 210 255
175 -6.03448 -15.5173 210 210 210 255
175 -6.03448 0 210 210 210 255
175 6.03448 -450 210 210 210 255
175 6.03448 -434.483 210 210 210 255
175 6.03448 -418.966 210 210 210 255
175 6.03448 -403.448 210 210 210 255
175 6.03448 -387.931 210 210 210 255
175 6.03448 -372.414 210 210 210 255
175 6.03448 -356.897 210 210 210 255
175 6.03448 -341.379 210 210 210 255
175 6.03448 -325.862 210 210 210 255
175 6.03448 -310.345 210 210 210 255
175 6.03448 -294.828 210 210 210 255
175 6.03448 -279.31 210 210 210 255
175 6.03448 -263.793 210 210 210 255
175 6.03448 -248.276 210 210 210 255
175 6.03448 -232.759 210 210 210 255
175 6.03448 -217.241 210 210 210 255
175 6.03448 -201.724 210 210 210 255
175 6.03448 -186.207 210 210 210 255
175 6.03448 -170.69 210 210 210 255
175 6.03448 -155.172 210 210 210 255
175 6.03448 -139.655 210 210 210 255
175 6.03448 -124.138 210 210 210 255
175 6.03448 -108.621 210 210 210 255
175 6.03448 -93.1035 210 210 210 255
175 6.03448 -77.5862 210 210 210 255
175 6.03448 -62.069 210 210 210 255
175 6.03448 -46.5517 210 210 210 255
175 6.03448 -31.0344 210 210 210 255
175 6.03448 -15.5173 210 210 210 255
175 6.03448 0 210 210 210 255
175 18.1035 -450 210 210 210 255
175 18.1035 -434.483 210 210 210 255
175 18.1035 -418.966 210 210 210 255
175 18.1035 -403.448 210 210 210 255
175 18.1035 -387.931 210 210 210 255
175 18.1035 -372.414 210 210 210 255
175 18.1035 -356.897 210 210 210 255
175 18.1035 -341.379 210 210 210 255
175 18.1035 -325.862 210 210 210 255
175 18.1035 -310.345 210 210 210 255
175 18.1035 -294.828 210 210 210 255
175 18.1035 -279.31 210 210 210 255
175 18.1035 -263.793 210 210 210 255
175 18.1035 -248.276 210 210 210 255
175 18.1035 -232.759 210 210 210 255
175 18.1035 -217.241 210 210 210 255
175 18.1035 -201.724 210 210 210 255
175 18.1035 -186.207 210 210 210 255
175 18.1035 -170.69 210 210 210 255
175 18.1035 -155.172 210 210 210 255
175 18.1035 -139.655 210 210 210 255
175 18.1035 -124.138 210 210 210 255
175 18.1035 -108.621 210 210 210 255
175 18.1035 -93.1035 210 210 210 255
175 18.1035 -77.5862 210 210 210 255
175 18.1035 -62.069 210 210 210 255
175 18.1035 -46.5517 210 210 210 255
175 18.1035 -31.0345 210 210 210 255
175 18.1035 -15.5173 210 210 210 255
175 18.1035 0 210 210 210 255
175 30.1724 -450 210 210 210 255
175 30.1724 -434.483 210 210 210 255
175 30.1724 -418.966 210 210 210 255
175 30.1724 -403.448 210 210 210 255
175 30.1724 -387.931 210 210 210 255
175 30.1724 -372.414 210 210 210 255
175 30.1724 -356.897 210 210 210 255
175 30.1724 -341.379 210 210 210 255
175 30.1724 -325.862 210 210 210 255
175 30.1724 -310.345 210 210 210 255
175 30.1724 -294.828 210 210 210 255
175 30.1724 -279.31 210 210 210 255
175 30.1724 -263.793 210 210 210 255
175 30.1724 -248.276 210 210 210 255
175 30.1724 -232.759 210 210 210 255
175 30.1724 -217.241 210 210 210 255
175 30.1724 -201.724 210 210 210 255
175 30.1724 -186.207 210 210 210 255
175 30.1724 -170.69 210 210 210 255
175 30.1724 -155.172 210 210 210 255
175 30.1724 -139.655 210 210 210 255
175 30.1724 -124.138 210 210 210 255
175 30.1724 -108.621 210 210 210 255
175 30.1724 -93.1035 210 210 210 255
175 30.1724 -77.5862 210 210 210 255
175 30.1724 -62.069 210 210 210 255
175 30.1724 -46.5518 210 210 210 255
175 30.1724 -31.0345 210 210 210 255
175 30.1724 -15.5172 210 210 210 255
175 30.1724 0 210 210 210 255
175 42.2414 -450 210 210 210 255
175 42.2414 -434.483 210 210 210 255
175 42.2414 -418.966 210 210 210 255
175 42.2414 -403.448 210 210 210 255
175 42.2414 -387.931 210 210 210 255
175 42.2414 -372.414 210 210 210 255
175 42.2414 -356.897 210 210 210 255
175 42.2414 -341.379 210 210 210 255
175 42.2414 -325.862 210 210 210 255
175 42.2414 -310.345 210 210 210 255
175 42.2414 -294.828 210 210 210 255
175 42.2414 -279.31 210 210 210 255
175 42.2414 -263.793 210 210 210 255
175 42.2414 -248.276 210 210 210 255
175 42.2414 -232.759 210 210 210 255
175 42.2414 -217.241 210 210 210 255
175 42.2414 -201.724 210 210 210 255
175 42.2414 -186.207 210 210 210 255
175 42.2414 -170.69 210 210 210 255
175 42.2414 -155.172 210 210 210 255
175 42.2414 -139.655 210 210 210 255
175 42.2414 -124.138 210 210 210 255
175 42.2414 -108.621 210 210 210 255
175 42.2414 -93.1035 210 210 210 255
175 42.2414 -77.5862 210 210 210 255
175 42.2414 -62.069 210 210 210 255
175 42.2414 -46.5518 210 210 210 255
175 42.2414 -31.0345 210 210 210 255
175 42.2414 -15.5173 210 210 210 255
175 42.2414 0 210 210 210 255
175 54.3104 -450 210 210 210 255
175 54.3104 -434.483 210 210 210 255
175 54.3104 -418.966 210 210 210 255
175 54.3104 -403.448 210 210 210 255
175 54.3104 -387.931 210 210 210 255
175 54.3104 -372.414 210 210 210 255
175 54.3104 -356.897 210 210 210 255
175 54.3104 -341.379 210 210 210 255
175 54.3104 -325.862 210 210 210 255
175 54.3104 -310.345 210 210 210 255
175 54.3104 -294.828 210 210 210 255
175 54.3104 -279.31 210 210 210 255
175 54.3104 -263.793 210 210 210 255
175 54.3104 -248.276 210 210 210 255
175 54.3104 -232.759 210 210 210 255
175 54.3104 -217.241 210 210 210 255
175 54.3104 -201.724 210 210 210 255
175 54.3104 -186.207 210 210 210 255
175 54.3104 -170.69 210 210 210 255
175 54.3104 -155.172 210 210 210 255
175 54.3104 -139.655 210 210 210 255
175 54.3104 -124.138 210 210 210 255
175 54.3104 -108.621 210 210 210 255
175 54.3104 -93.1035 210 210 210 255
175 54.3104 -77.5862 210 210 210 255
175 54.3104 -62.069 210 210 210 255
175 54.3104 -46.5518 210 210 210 255
175 54.3104 -31.0345 210 210 210 255
175 54.3104 -15.5172 210 210 210 255
175 54.3104 0 210 210 210 255
175 66.3793 -450 210 210 210 255
175 66.3793 -434.483 210 210 210 255
175 66.3793 -418.966 210 210 210 255
175 66.3793 -403.448 210 210 210 255
175 66.3793 -387.931 210 210 210 255
175 66.3793 -372.414 210 210 210 255
175 66.3793 -356.897 210 210 210 255
175 66.3793 -341.379 210 210 210 255
175 66.3793 -325.862 210 210 210 255
175 66.3793 -310.345 210 210 210 255
175 66.3793 -294.828 210 210 210 255
175 66.3793 -279.31 210 210 210 255
175 66.3793 -263.793 210 210 210 255
175 66.3793 -248.276 210 210 210 255
175 66.3793 -232.759 210 210 210 255
175 66.3793 -217.241 210 210 210 255
175 66.3793 -201.724 210 210 210 255
175 66.3793 -186.207 210 210 210 255
175 66.3793 -170.69 210 210 210 255
175 66.3793 -155.172 210 210 210 255
175 66.3793 -139.655 210 210 210 255
175 66.3793 -124.138 210 210 210 255
175 66.3793 -108.621 210 210 210 255
175 66.3793 -93.1034 210 210 210 255
175 66.3793 -77.5862 210 210 210 255
175 66.3793 -62.069 210 210 210 255
175 66.3793 -46.5518 210 210 210 255
175 66.3793 -31.0345 210 210 210 255
175 66.3793 -15.5172 210 210 210 255
175 66.3793 0 210 210 210 255
175 78.4483 -450 210 210 210 255
175 78.4483 -434.483 210 210 210 255
175 78.4483 -418.966 210 210 210 255
175 78.4483 -403.448 210 210 210 255
175 78.4483 -387.931 210 210 210 255
175 78.4483 -372.414 210 210 210 255
175 78.4483 -356.897 210 210 210 255
175 78.4483 -341.379 210 210 210 255
175 78.4483 -325.862 210 210 210 255
175 78.4483 -310.345 210 210 210 255
175 78.4483 -294.828 210 210 210 255
175 78.4483 -279.31 210 210 210 255
175 78.4483 -263.793 210 210 210 255
175 78.4483 -248.276 210 210 210 255
175 78.4483 -232.759 210 210 210 255
175 78.4483 -217.241 210 210 210 255
175 78.4483 -201.724 210 210 210 255
175 78.4483 -186.207 210 210 210 255
175 78.4483 -170.69 210 210 210 255
175 78.4483 -155.172 210 210 210 255
175 78.4483 -139.655 210 210 210 255
175 78.4483 -124.138 210 210 210 255
175 78.4483 -108.621 210 210 210 255
175 78.4483 -93.1035 210 210 210 255
175 78.4483 -77.5862 210 210 210 255
175 78.4483 -62.069 210 210 210 255
175 78.4483 -46.5517 210 210 210 255
175 78.4483 -31.0345 210 210 210 255
175 78.4483 -15.5172 210 210 210 255
175 78.4483 0 210 210 210 255
175 90.5172 -450 210 210 210 255
175 90.5172 -434.483 210 210 210 255
175 90.5172 -418.966 210 210 210 255
175 90.5172 -403.448 210 210 210 255
175 90.5172 -387.931 210 210 210 255
175 90.5172 -372.414 210 210 210 255
175 90.5172 -356.897 210 210 210 255
175 90.5172 -341.379 210 210 210 255
175 90.5172 -325.862 210 210 210 255
175 90.5172 -310.345 210 210 210 255
175 90.5172 -294.828 210 210 210 255
175 90.5172 -279.31 210 210 210 255
175 90.5172 -263.793 210 210 210 255
175 90.5172 -248.276 210 210 210 255
175 90.5172 -232.759 210 210 210 255
175 90.5172 -217.241 210 210 210 255
175 90.5172 -201.724 210 210 210 255
175 90.5172 -186.207 210 210 210 255
175 90.5172 -170.69 210 210 210 255
175 90.5172 -155.172 210 210 210 255
175 90.5172 -139.655 210 210 210 255
175 90.5172 -124.138 210 210 210 255
175 90.5172 -108.621 210 210 210 255
175 90.5172 -93.1034 210 210 210 255
175 90.5172 -77.5862 210 210 210 255
175 90.5172 -62.069 210 210 210 255
175 90.5172 -46.5518 210 210 210 255
175 90.5172 -31.0345 210 210 210 255
175 90.5172 -15.5172 210 210 210 255
175 90.5172 0 210 210 210 255
175 102.586 -450 210 210 210 255
175 102.586 -434.483 210 210 210 255
175 102.586 -418.966 210 210 210 255
175 102.586 -403.448 210 210 210 255
175 102.586 -387.931 210 210 210 255
175 102.586 -372.414 210 210 210 255
175 102.586 -356.897 210 210 210 255
175 102.586 -341.379 210 210 210 255
175 102.586 -325.862 210 210 210 255
175 102.586 -310.345 210 210 210 255
175 102.586 -294.828 210 210 210 255
175 102.586 -279.31 210 210 210 255
175 102.586 -263.793 210 210 210 255
175 102.586 -248.276 210 210 210 255
175 102.586 -232.759 210 210 210 255
175 102.586 -217.241 210 210 210 255
175 102.586 -201.724 210 210 210 255
175 102.586 -186.207 210 210 210 255
175 102.586 -170.69 210 210 210 255
175 102.586 -155.172 210 210 210 255
175 102.586 -139.655 210 210 210 255
175 102.586 -124.138 210 210 210 255
175 102.586 -108.621 210 210 210 255
175 102.586 -93.1035 210 210 210 255
175 102.586 -77.5862 210 210 210 255
175 102.586 -62.069 210 210 210 255
175 102.586 -46.5518 210 210 210 255
175 102.586 -31.0345 210 210 210 255
175 102.586 -15.5173 210 210 210 255
175 102.586 0 210 210 210 255
175 114.655 -450 210 210 210 255
175 114.655 -434.483 210 210 210 255
175 114.655 -418.966 210 210 210 255
175 114.655 -403.448 210 210 210 255
175 114.655 -387.931 210 210 210 255
175 114.655 -372.414 210 210 210 255
175 114.655 -356.897 210 210 210 255
175 114.655 -341.379 210 210 210 255
175 114.655 -325.862 210 210 210 255
175 114.655 -310.345 210 210 210 255
175 114.655 -294.828 210 210 210 255
175 114.655 -279.31 210 210 210 255
175 114.655 -263.793 210 210 210 255
175 114.655 -248.276 210 210 210 255
175 114.655 -232.759 210 210 210 255
175 114.655 -217.241 210 210 210 255
175 114.655 -201.724 210 210 210 255
175 114.655 -186.207 210 210 210 255
175 114.655 -170.69 210 210 210 255
175 114.655 -155.172 210 210 210 255
175 114.655 -139.655 210 210 210 255
175 114.655 -124.138 210 210 210 255
175 114.655 -108.621 210 210 210 255
175 114.655 -93.1035 210 210 210 255
175 114.655 -77.5862 210 210 210 255
175 114.655 -62.069 210 210 210 255
175 114.655 -46.5517 210 210 210 255
175 114.655 -31.0345 210 210 210 255
175 114.655 -15.5173 210 210 210 255
175 114.655 0 210 210 210 255
175 126.724 -450 210 210 210 255
175 126.724 -434.483 210 210 210 255
175 126.724 -418.966 210 210 210 255
175 126.724 -403.448 210 210 210 255
175 126.724 -387.931 210 210 210 255
175 126.724 -372.414 210 210 210 255
175 126.724 -356.897 210 210 210 255
175 126.724 -341.379 210 210 210 255
175 126.724 -325.862 210 210 210 255
175 126.724 -310.345 210 210 210 255
175 126.724 -294.828 210 210 210 255
175 126.724 -279.31 210 210 210 255
175 126.724 -263.793 210 210 210 255
175 126.724 -248.276 210 210 210 255
175 126.724 -232.759 210 210 210 255
175 126.724 -217.241 210 210 210 255
175 126.724 -201.724 210 210 210 255
175 126.724 -186.207 210 210 210 255
175 126.724 -170.69 210 210 210 255
175 126.724 -155.172 210 210 210 255
175 126.724 -139.655 210 210 210 255
175 126.724 -124.138 210 210 210 255
175 126.724 -108.621 210 210 210 255
175 126.724 -93.1035 210 210 210 255
175 126.724 -77.5862 210 210 210 255
175 126.724 -62.069 210 210 210 255
175 126.724 -46.5517 210 210 210 255
175 126.724 -31.0345 210 210 210 255
175 126.724 -15.5173 210 210 210 255
175 126.724 0 210 210 210 255
175 138.793 -450 210 210 210 255
175 138.793 -434.483 210 210 210 255
175 138.793 -418.966 210 210 210 255
175 138.793 -403.448 210 210 210 255
175 138.793 -387.931 210 210 210 255
175 138.793 -372.414 210 210 210 255
175 138.793 -356.897 210 210 210 255
175 138.793 -341.379 210 210 210 255
175 138.793 -325.862 210 210 210 255
175 138.793 -310.345 210 210 210 255
175 138.793 -294.828 210 210 210 255
175 138.793 -279.31 210 210 210 255
175 138.793 -263.793 210 210 210 255
175 138.793 -248.276 210 210 210 255
175 138.793 -232.759 210 210 210 255
175 138.793 -217.241 210 210 210 255
175 138.793 -201.724 210 210 210 255
175 138.793 -186.207 210 210 210 255
175 138.793 -170.69 210 210 210 255
175 138.793 -155.172 210 210 210 255
175 138.793 -139.655 210 210 210 255
175 138.793 -124.138 210 210 210 255
175 138.793 -108.621 210 210 210 255
175 138.793 -93.1035 210 210 210 255
175 138.793 -77.5862 210 210 210 255
175 138.793 -62.069 210 210 210 255
175 138.793 -46.5517 210 210 210 255
175 138.793 -31.0345 210 210 210 255
175 138.793 -15.5172 210 210 210 255
175 138.793 0 210 210 210 255
175 150.862 -450 210 210 210 255
175 150.862 -434.483 210 210 210 255
175 150.862 -418.966 210 210 210 255
175 150.862 -403.448 210 210 210 255
175 150.862 -387.931 210 210 210 255
175 150.862 -372.414 210 210 210 255
175 150.862 -356.897 210 210 210 255
175 150.862 -341.379 210 210 210 255
175 150.862 -325.862 210 210 210 255
175 150.862 -310.345 210 210 210 255
175 150.862 -294.828 210 210 210 255
175 150.862 -279.31 210 210 210 255
175 150.862 -263.793 210 210 210 255
175 150.862 -248.276 210 210 210 255
175 150.862 -232.759 210 210 210 255
175 150.862 -217.241 210 210 210 255
175 150.862 -201.724 210 210 210 255
175 150.862 -186.207 210 210 210 255
175 150.862 -170.69 210 210 210 255
175 150.862 -155.172 210 210 210 255
175 150.862 -139.655 210 210 210 255
175 150.862 -124.138 210 210 210 255
175 150.862 -108.621 210 210 210 255
175 150.862 -93.1034 210 210 210 255
175 150.862 -77.5862 210 210 210 255
175 150.862 -62.069 210 210 210 255
175 150.862 -46.5517 210 210 210 255
175 150.862 -31.0344 210 210 210 255
175 150.862 -15.5172 210 210 210 255
175 150.862 0 210 210 210 255
175 162.931 -450 210 210 210 255
175 162.931 -434.483 210 210 210 255
175 162.931 -418.966 210 210 210 255
175 162.931 -403.448 210 210 210 255
175 162.931 -387.931 210 210 210 255
175 162.931 -372.414 210 210 210 255
175 162.931 -356.897 210 210 210 255
175 162.931 -341.379 210 210 210 255
175 162.931 -325.862 210 210 210 255
175 162.931 -310.345 210 210 210 255
175 162.931 -294.828 210 210 210 255
175 162.931 -279.31 210 210 210 255
175 162.931 -263.793 210 210 210 255
175 162.931 -248.276 210 210 210 255
175 162.931 -232.759 210 210 210 255
175 162.931 -217.241 210 210 210 255
175 162.931 -201.724 210 210 210 255
175 162.931 -186.207 210 210 210 255
175 162.931 -170.69 210 210 210 255
175 162.931 -155.172 210 210 210 255
175 162.931 -139.655 210 210 210 255
175 162.931 -124.138 210 210 210 255
175 162.931 -108.621 210 210 210 255
175 162.931 -93.1035 210 210 210 255
175 162.931 -77.5862 210 210 210 255
175 162.931 -62.069 210 210 210 255
175 162.931 -46.5517 210 210 210 255
175 162.931 -31.0345 210 210 210 255
175 162.931 -15.5172 210 210 210 255
175 162.931 0 210 210 210 255
175 175 -450 210 210 210 255
175 175 -434.483 210 210 210 255
175 175 -418.966 210 210 210 255
175 175 -403.448 210 210 210 255
175 175 -387.931 210 210 210 255
175 175 -372.414 210 210 210 255
175 175 -356.897 210 210 210 255
175 175 -341.379 210 210 210 255
175 175 -325.862 210 210 210 255
175 175 -310.345 210 210 210 255
175 175 -294.828 210 210 210 255
175 175 -279.31 210 210 210 255
175 175 -263.793 210 210 210 255
175 175 -248.276 210 210 210 255
175 175 -232.759 210 210 210 255
175 175 -217.241 210 210 210 255
175 175 -201.724 210 210 210 255
175 175 -186.207 210 210 210 255
175 175 -170.69 210 210 210 255
175 175 -155.172 210 210 210 255
175 175 -139.655 210 210 210 255
175 175 -124.138 210 210 210 255
175 175 -108.621 210 210 210 255
175 175 -93.1035 210 210 210 255
175 175 -77.5862 210 210 210 255
175 175 -62.069 210 210 210 255
175 175 -46.5518 210 210 210 255
175 175 -31.0345 210 210 210 255
175 175 -15.5172 210 210 210 255
175 175 0 210 210 210 255
