ply
format ascii 1.0
element vertex 900
property float x
property float y
property float z
property uchar red
property uchar green
property uchar blue
property uchar alpha
end_header
-175 -175 0 210 210 210 255
-175 -162.931 0 210 210 210 255
-175 -150.862 0 210 210 210 255
-175 -138.793 0 210 210 210 255
-175 -126.724 0 210 210 210 255
-175 -114.655 0 210 210 210 255
-175 -102.586 0 210 210 210 255
-175 -90.5172 0 210 210 210 255
-175 -78.4483 0 210 210 210 255
-175 -66.3793 0 210 210 210 255
-175 -54.3104 0 210 210 210 255
-175 -42.2414 0 210 210 210 255
-175 -30.1724 0 210 210 210 255
-175 -18.1035 0 210 210 210 255
-175 -6.03448 0 210 210 210 255
-175 6.03448 0 210 210 210 255
-175 18.1035 0 210 210 210 255
-175 30.1724 0 210 210 210 255
-175 42.2414 0 210 210 210 255
-175 54.3104 0 210 210 210 255
-175 66.3793 0 210 210 210 255
-175 78.4483 0 210 210 210 255
-175 90.5172 0 210 210 210 255
-175 102.586 0 210 210 210 255
-175 114.655 0 210 210 210 255
-175 126.724 0 210 210 210 255
-175 138.793 0 210 210 210 255
-175 150.862 0 210 210 210 255
-175 162.931 0 210 210 210 255
-175 175 0 210 210 210 255
-162.938 -176.663 0 210 210 210 255
-162.937 -164.376 0 210 210 210 255
-162.936 -152.111 0 210 210 210 255
-162.935 -139.867 0 210 210 210 255
-162.935 -127.642 0 210 210 210 255
-162.934 -115.435 0 210 210 210 255
-162.934 -103.244 0 210 210 210 255
-162.933 -91.0679 0 210 210 210 255
-162.933 -78.9055 0 210 210 210 255
-162.933 -66.7555 0 210 210 210 255
-162.932 -54.6167 0 210 210 210 255
-162.932 -42.4882 0 210 210 210 255
-162.932 -30.3688 0 210 210 210 255
-162.932 -18.2574 0 210 210 210 255
-162.931 -6.15344 0 210 210 210 255
-162.931 5.94421 0 210 210 210 255
-162.931 18.0363 0 210 210 210 255
-162.931 30.1237 0 210 210 210 255
-162.931 42.2068 0 210 210 210 255
-162.931 54.2868 0 210 210 210 255
-162.931 66.364 0 210 210 210 255
-162.931 78.4387 0 210 210 210 255
-162.931 90.5116 0 210 210 210 255
-162.931 102.583 0 210 210 210 255
-162.931 114.654 0 210 210 210 255
-162.931 126.724 0 210 210 210 255
-162.931 138.793 0 210 210 210 255
-162.931 150.862 0 210 210 210 255
-162.931 162.931 0 210 210 210 255
-162.931 175 0 210 210 210 255
-150.887 -181.184 0 210 210 210 255
-150.884 -168.305 0 210 210 210 255
-150.881 -155.509 0 210 210 210 255
-150.878 -142.789 0 210 210 210 255
-150.876 -130.14 0 210 210 210 255
-150.874 -117.556 0 210 210 210 255
-150.872 -105.033 0 210 210 210 255
-150.87 -92.5655 0 210 210 210 255
-150.869 -80.1488 0 210 210 210 255
-150.868 -67.7783 0 210 210 210 255
-150.867 -55.4498 0 210 210 210 255
-150.866 -43.1593 0 210 210 210 255
-150.865 -30.9027 0 210 210 210 255
-150.864 -18.6764 0 210 210 210 255
-150.864 -6.47711 0 210 210 210 255
-150.863 5.69861 0 210 210 210 255
-150.863 17.8536 0 210 210 210 255
-150.863 29.9911 0 210 210 210 255
-150.863 42.1133 0 210 210 210 255
-150.862 54.2229 0 210 210 210 255
-150.862 66.3221 0 210 210 210 255
-150.862 78.4124 0 210 210 210 255
-150.862 90.4962 0 210 210 210 255
-150.862 102.575 0 210 210 210 255
-150.862 114.65 0 210 210 210 255
-150.862 126.722 0 210 210 210 255
-150.862 138.792 0 210 210 210 255
-150.862 150.862 0 210 210 210 255
-150.862 162.931 0 210 210 210 255
-150.862 175 0 210 210 210 255
-138.845 -187.903 0 210 210 210 255
-138.838 -174.144 0 210 210 210 255
-138.832 -160.557 0 210 210 210 255
-138.827 -147.13 0 210 210 210 255
-138.822 -133.85 0 210 210 210 255
-138.817 -120.708 0 210 210 210 255
-138.814 -107.691 0 210 210 210 255
-138.81 -94.7908 0 210 210 210 255
-138.807 -81.9962 0 210 210 210 255
-138.805 -69.2982 0 210 210 210 255
-138.803 -56.6877 0 210 210 210 255
-138.801 -44.1564 0 210 210 210 255
-138.799 -31.6961 0 210 210 210 255
-138.798 -19.2991 0 210 210 210 255
-138.797 -6.95807 0 210 210 210 255
-138.796 5.33368 0 210 210 210 255
-138.795 17.5823 0 210 210 210 255
-138.795 29.7941 0 210 210 210 255
-138.794 41.9744 0 210 210 210 255
-138.794 54.1279 0 210 210 210 255
-138.794 66.2595 0 210 210 210 255
-138.793 78.3735 0 210 210 210 255
-138.793 90.4734 0 210 210 210 255
-138.793 102.562 0 210 210 210 255
-138.793 114.644 0 210 210 210 255
-138.793 126.719 0 210 210 210 255
-138.793 138.792 0 210 210 210 255
-138.793 150.862 0 210 210 210 255
-138.793 162.931 0 210 210 210 255
-138.793 175 0 210 210 210 255
-126.809 -196.208 0 210 210 210 255
-126.798 -181.362 0 210 210 210 255
-126.788 -166.797 0 210 210 210 255
-126.779 -152.496 0 210 210 210 255
-126.771 -138.437 0 210 210 210 255
-126.764 -124.604 0 210 210 210 255
-126.758 -110.977 0 210 210 210 255
-126.752 -97.5414 0 210 210 210 255
-126.747 -84.2799 0 210 210 210 255
-126.743 -71.1769 0 210 210 210 255
-126.74 -58.2181 0 210 210 210 255
-126.737 -45.3891 0 210 210 210 255
-126.734 -32.6768 0 210 210 210 255
-126.732 -20.0686 0 210 210 210 255
-126.73 -7.55255 0 210 210 210 255
-126.729 4.88245 0 210 210 210 255
-126.728 17.247 0 210 210 210 255
-126.727 29.5507 0 210 210 210 255
-126.726 41.8024 0 210 210 210 255
-126.725 54.0105 0 210 210 210 255
-126.725 66.1824 0 210 210 210 255
-126.725 78.3254 0 210 210 210 255
-126.724 90.4452 0 210 210 210 255
-126.724 102.547 0 210 210 210 255
-126.724 114.636 0 210 210 210 255
-126.724 126.716 0 210 210 210 255
-126.724 138.791 0 210 210 210 255
-126.724 150.862 0 210 210 210 255
-126.724 162.931 0 210 210 210 255
-126.724 175 0 210 210 210 255
-114.777 -205.539 0 210 210 210 255
-114.761 -189.471 0 210 210 210 255
-114.747 -173.809 0 210 210 210 255
-114.734 -158.525 0 210 210 210 255
-114.723 -143.591 0 210 210 210 255
-114.713 -128.981 0 210 210 210 255
-114.703 -114.669 0 210 210 210 255
-114.696 -100.632 0 210 210 210 255
-114.689 -86.8458 0 210 210 210 255
-114.683 -73.2879 0 210 210 210 255
-114.678 -59.9374 0 210 210 210 255
-114.673 -46.7741 0 210 210 210 255
-114.67 -33.7787 0 210 210 210 255
-114.666 -20.9332 0 210 210 210 255
-114.664 -8.2204 0 210 210 210 255
-114.662 4.37567 0 210 210 210 255
-114.66 16.8702 0 210 210 210 255
-114.659 29.2771 0 210 210 210 255
-114.658 41.6093 0 210 210 210 255
-114.657 53.8786 0 210 210 210 255
-114.656 66.0959 0 210 210 210 255
-114.656 78.2715 0 210 210 210 255
-114.656 90.4136 0 210 210 210 255
-114.655 102.53 0 210 210 210 255
-114.655 114.628 0 210 210 210 255
-114.655 126.713 0 210 210 210 255
-114.655 138.79 0 210 210 210 255
-114.655 150.861 0 210 210 210 255
-114.655 162.931 0 210 210 210 255
-114.655 175 0 210 210 210 255
-102.748 -215.388 0 210 210 210 255
-102.727 -198.03 0 210 210 210 255
-102.708 -181.209 0 210 210 210 255
-102.691 -164.888 0 210 210 210 255
-102.676 -149.03 0 210 210 210 255
-102.662 -133.601 0 210 210 210 255
-102.65 -118.566 0 210 210 210 255
-102.64 -103.894 0 210 210 210 255
-102.631 -89.5539 0 210 210 210 255
-102.623 -75.516 0 210 210 210 255
-102.616 -61.7522 0 210 210 210 255
-102.61 -48.2359 0 210 210 210 255
-102.605 -34.9417 0 210 210 210 255
-102.601 -21.8458 0 210 210 210 255
-102.598 -8.92535 0 210 210 210 255
-102.595 3.84082 0 210 210 210 255
-102.593 16.4725 0 210 210 210 255
-102.591 28.9883 0 210 210 210 255
-102.589 41.4052 0 210 210 210 255
-102.588 53.7393 0 210 210 210 255
-102.588 66.0046 0 210 210 210 255
-102.587 78.2144 0 210 210 210 255
-102.587 90.3802 0 210 210 210 255
-102.586 102.512 0 210 210 210 255
-102.586 114.62 0 210 210 210 255
-102.586 126.71 0 210 210 210 255
-102.586 138.788 0 210 210 210 255
-102.586 150.861 0 210 210 210 255
-102.586 162.931 0 210 210 210 255
-102.586 175 0 210 210 210 255
-90.7184 -225.297 0 210 210 210 255
-90.6921 -206.641 0 210 210 210 255
-90.6683 -188.654 0 210 210 210 255
-90.6471 -171.29 0 210 210 210 255
-90.6284 -154.503 0 210 210 210 255
-90.6116 -138.249 0 210 210 210 255
-90.5967 -122.487 0 210 210 210 255
-90.5838 -107.176 0 210 210 210 255
-90.5725 -92.2784 0 210 210 210 255
-90.5629 -77.7574 0 210 210 210 255
-90.5542 -63.5777 0 210 210 210 255
-90.5471 -49.7065 0 210 210 210 255
-90.541 -36.1118 0 210 210 210 255
-90.5359 -22.7639 0 210 210 210 255
-90.5317 -9.63464 0 210 210 210 255
-90.5282 3.30267 0 210 210 210 255
-90.5253 16.0724 0 210 210 210 255
-90.5231 28.6978 0 210 210 210 255
-90.5214 41.2002 0 210 210 210 255
-90.52 53.5992 0 210 210 210 255
-90.5192 65.9127 0 210 210 210 255
-90.5184 78.1569 0 210 210 210 255
-90.5179 90.3466 0 210 210 210 255
-90.5176 102.494 0 210 210 210 255
-90.5174 114.611 0 210 210 210 255
-90.5174 126.706 0 210 210 210 255
-90.5172 138.787 0 210 210 210 255
-90.5173 150.861 0 210 210 210 255
-90.5172 162.931 0 210 210 210 255
-90.5172 175 0 210 210 210 255
-78.6877 -234.857 0 210 210 210 255
-78.6564 -214.95 0 210 210 210 255
-78.6281 -195.838 0 210 210 210 255
-78.6028 -177.467 0 210 210 210 255
-78.5804 -159.783 0 210 210 210 255
-78.5606 -142.733 0 210 210 210 255
-78.543 -126.269 0 210 210 210 255
-78.5275 -110.342 0 210 210 210 255
-78.5141 -94.9073 0 210 210 210 255
-78.5024 -79.9201 0 210 210 210 255
-78.4924 -65.3394 0 210 210 210 255
-78.4838 -51.1255 0 210 210 210 255
-78.4766 -37.2409 0 210 210 210 255
-78.4705 -23.6497 0 210 210 210 255
-78.4653 -10.3189 0 210 210 210 255
-78.4612 2.78326 0 210 210 210 255
-78.458 15.6864 0 210 210 210 255
-78.4553 28.4175 0 210 210 210 255
-78.4532 41.0023 0 210 210 210 255
-78.4517 53.464 0 210 210 210 255
-78.4505 65.824 0 210 210 210 255
-78.4496 78.1017 0 210 210 210 255
-78.449 90.314 0 210 210 210 255
-78.4487 102.477 0 210 210 210 255
-78.4485 114.602 0 210 210 210 255
-78.4484 126.702 0 210 210 210 255
-78.4483 138.786 0 210 210 210 255
-78.4482 150.861 0 210 210 210 255
-78.4482 162.931 0 210 210 210 255
-78.4483 175 0 210 210 210 255
-66.6542 -243.714 0 210 210 210 255
-66.6182 -222.646 0 210 210 210 255
-66.5859 -202.493 0 210 210 210 255
-66.5568 -183.189 0 210 210 210 255
-66.5312 -164.674 0 210 210 210 255
-66.5083 -146.888 0 210 210 210 255
-66.4882 -129.773 0 210 210 210 255
-66.4703 -113.276 0 210 210 210 255
-66.455 -97.3425 0 210 210 210 255
-66.4415 -81.9236 0 210 210 210 255
-66.4299 -66.9713 0 210 210 210 255
-66.4201 -52.44 0 210 210 210 255
-66.4117 -38.2867 0 210 210 210 255
-66.4048 -24.4704 0 210 210 210 255
-66.399 -10.9529 0 210 210 210 255
-66.3942 2.30237 0 210 210 210 255
-66.3904 15.3287 0 210 210 210 255
-66.3874 28.1578 0 210 210 210 255
-66.385 40.819 0 210 210 210 255
-66.3832 53.3388 0 210 210 210 255
-66.3818 65.742 0 210 210 210 255
-66.3809 78.0504 0 210 210 210 255
-66.3802 90.284 0 210 210 210 255
-66.3798 102.46 0 210 210 210 255
-66.3796 114.594 0 210 210 210 255
-66.3794 126.699 0 210 210 210 255
-66.3793 138.785 0 210 210 210 255
-66.3793 150.86 0 210 210 210 255
-66.3793 162.931 0 210 210 210 255
-66.3793 175 0 210 210 210 255
-54.6166 -251.561 0 210 210 210 255
-54.5765 -229.466 0 210 210 210 255
-54.5404 -208.389 0 210 210 210 255
-54.5084 -188.259 0 210 210 210 255
-54.4794 -169.008 0 210 210 210 255
-54.454 -150.569 0 210 210 210 255
-54.4316 -132.878 0 210 210 210 255
-54.4117 -115.875 0 210 210 210 255
-54.3946 -99.5002 0 210 210 210 255
-54.3796 -83.6988 0 210 210 210 255
-54.3668 -68.4172 0 210 210 210 255
-54.3559 -53.6046 0 210 210 210 255
-54.3465 -39.2132 0 210 210 210 255
-54.3387 -25.1975 0 210 210 210 255
-54.3322 -11.5145 0 210 210 210 255
-54.3269 1.8761 0 210 210 210 255
-54.3228 15.0119 0 210 210 210 255
-54.3193 27.9279 0 210 210 210 255
-54.3167 40.6566 0 210 210 210 255
-54.3147 53.2279 0 210 210 210 255
-54.3132 65.6691 0 210 210 210 255
-54.3121 78.0048 0 210 210 210 255
-54.3113 90.2573 0 210 210 210 255
-54.311 102.446 0 210 210 210 255
-54.3106 114.588 0 210 210 210 255
-54.3104 126.696 0 210 210 210 255
-54.3105 138.784 0 210 210 210 255
-54.3103 150.86 0 210 210 210 255
-54.3104 162.931 0 210 210 210 255
-54.3104 175 0 210 210 210 255
-42.574 -258.144 0 210 210 210 255
-42.5305 -235.186 0 210 210 210 255
-42.4913 -213.335 0 210 210 210 255
-42.4564 -192.512 0 210 210 210 255
-42.4252 -172.644 0 210 210 210 255
-42.3973 -153.657 0 210 210 210 255
-42.373 -135.483 0 210 210 210 255
-42.3516 -118.055 0 210 210 210 255
-42.3328 -101.31 0 210 210 210 255
-42.3167 -85.188 0 210 210 210 255
-42.3027 -69.6301 0 210 210 210 255
-42.2906 -54.5818 0 210 210 210 255
-42.2807 -39.9906 0 210 210 210 255
-42.2722 -25.8075 0 210 210 210 255
-42.2652 -11.9857 0 210 210 210 255
-42.2595 1.51855 0 210 210 210 255
-42.2547 14.7459 0 210 210 210 255
-42.2512 27.7349 0 210 210 210 255
-42.2483 40.5202 0 210 210 210 255
-42.2462 53.1348 0 210 210 210 255
-42.2444 65.608 0 210 210 210 255
-42.2432 77.9667 0 210 210 210 255
-42.2426 90.2349 0 210 210 210 255
-42.2419 102.434 0 210 210 210 255
-42.2416 114.582 0 210 210 210 255
-42.2416 126.694 0 210 210 210 255
-42.2415 138.784 0 210 210 210 255
-42.2415 150.86 0 210 210 210 255
-42.2414 162.931 0 210 210 210 255
-42.2414 175 0 210 210 210 255
-30.5255 -263.259 0 210 210 210 255
-30.4792 -239.632 0 210 210 210 255
-30.4376 -217.179 0 210 210 210 255
-30.4005 -195.818 0 210 210 210 255
-30.3674 -175.469 0 210 210 210 255
-30.338 -156.056 0 210 210 210 255
-30.3123 -137.507 0 210 210 210 255
-30.2894 -119.749 0 210 210 210 255
-30.2694 -102.717 0 210 210 210 255
-30.2523 -86.3452 0 210 210 210 255
-30.2375 -70.5727 0 210 210 210 255
-30.2248 -55.3409 0 210 210 210 255
-30.2142 -40.5947 0 210 210 210 255
-30.2052 -26.2815 0 210 210 210 255
-30.1977 -12.3518 0 210 210 210 255
-30.1916 1.24066 0 210 210 210 255
-30.1867 14.5396 0 210 210 210 255
-30.1828 27.5848 0 210 210 210 255
-30.1797 40.4144 0 210 210 210 255
-30.1775 53.0625 0 210 210 210 255
-30.1757 65.5606 0 210 210 210 255
-30.1744 77.9371 0 210 210 210 255
-30.1737 90.2175 0 210 210 210 255
-30.1732 102.424 0 210 210 210 255
-30.1727 114.577 0 210 210 210 255
-30.1725 126.692 0 210 210 210 255
-30.1725 138.783 0 210 210 210 255
-30.1724 150.86 0 210 210 210 255
-30.1724 162.931 0 210 210 210 255
-30.1724 175 0 210 210 210 255
-18.4705 -266.754 0 210 210 210 255
-18.4225 -242.669 0 210 210 210 255
-18.3792 -219.805 0 210 210 210 255
-18.3406 -198.076 0 210 210 210 255
-18.3062 -177.399 0 210 210 210 255
-18.2756 -157.696 0 210 210 210 255
-18.2488 -138.889 0 210 210 210 255
-18.225 -120.907 0 210 210 210 255
-18.2043 -103.678 0 210 210 210 255
-18.1865 -87.1358 0 210 210 210 255
-18.171 -71.2166 0 210 210 210 255
-18.158 -55.8597 0 210 210 210 255
-18.1469 -41.0074 0 210 210 210 255
-18.1374 -26.6053 0 210 210 210 255
-18.1297 -12.6019 0 210 210 210 255
-18.1234 1.0509 0 210 210 210 255
-18.1182 14.3983 0 210 210 210 255
-18.1143 27.4824 0 210 210 210 255
-18.1111 40.3421 0 210 210 210 255
-18.1086 53.0131 0 210 210 210 255
-18.1069 65.5281 0 210 210 210 255
-18.1056 77.9169 0 210 210 210 255
-18.1047 90.2058 0 210 210 210 255
-18.1042 102.418 0 210 210 210 255
-18.1037 114.574 0 210 210 210 255
-18.1036 126.691 0 210 210 210 255
-18.1035 138.783 0 210 210 210 255
-18.1035 150.86 0 210 210 210 255
-18.1035 162.931 0 210 210 210 255
-18.1035 175 0 210 210 210 255
-6.40857 -268.527 0 210 210 210 255
-6.35962 -244.21 0 210 210 210 255
-6.31561 -221.137 0 210 210 210 255
-6.27625 -199.221 0 210 210 210 255
-6.24109 -178.378 0 210 210 210 255
-6.20996 -158.528 0 210 210 210 255
-6.1825 -139.591 0 210 210 210 255
-6.15833 -121.494 0 210 210 210 255
-6.13745 -104.165 0 210 210 210 255
-6.11914 -87.5369 0 210 210 210 255
-6.10333 -71.5434 0 210 210 210 255
-6.09003 -56.1229 0 210 210 210 255
-6.07855 -41.2167 0 210 210 210 255
-6.06903 -26.7696 0 210 210 210 255
-6.06128 -12.7289 0 210 210 210 255
-6.05481 0.954529 0 210 210 210 255
-6.0495 14.3267 0 210 210 210 255
-6.04535 27.4304 0 210 210 210 255
-6.04224 40.3053 0 210 210 210 255
-6.03967 52.988 0 210 210 210 255
-6.03802 65.5117 0 210 210 210 255
-6.03674 77.9066 0 210 210 210 255
-6.03571 90.1997 0 210 210 210 255
-6.03516 102.415 0 210 210 210 255
-6.03479 114.573 0 210 210 210 255
-6.03461 126.69 0 210 210 210 255
-6.03461 138.782 0 210 210 210 255
-6.03448 150.86 0 210 210 210 255
-6.03448 162.931 0 210 210 210 255
-6.03448 175 0 210 210 210 255
5.66034 -268.527 0 210 210 210 255
5.70941 -244.21 0 210 210 210 255
5.7533 -221.137 0 210 210 210 255
5.79279 -199.221 0 210 210 210 255
5.82788 -178.378 0 210 210 210 255
5.85901 -158.528 0 210 210 210 255
5.88635 -139.591 0 210 210 210 255
5.9104 -121.494 0 210 210 210 255
5.9317 -104.165 0 210 210 210 255
5.94983 -87.5369 0 210 210 210 255
5.96564 -71.5434 0 210 210 210 255
5.979 -56.1229 0 210 210 210 255
5.99036 -41.2168 0 210 210 210 255
5.99988 -26.7696 0 210 210 210 255
6.00769 -12.7289 0 210 210 210 255
6.0141 0.954529 0 210 210 210 255
6.01941 14.3267 0 210 210 210 255
6.02356 27.4304 0 210 210 210 255
6.02673 40.3054 0 210 210 210 255
6.02924 52.988 0 210 210 210 255
6.03107 65.5117 0 210 210 210 255
6.03235 77.9066 0 210 210 210 255
6.03314 90.1998 0 210 210 210 255
6.03369 102.415 0 210 210 210 255
6.03412 114.573 0 210 210 210 255
6.03436 126.69 0 210 210 210 255
6.03448 138.782 0 210 210 210 255
6.03436 150.86 0 210 210 210 255
6.03455 162.931 0 210 210 210 255
6.03448 175 0 210 210 210 255
17.7365 -266.754 0 210 210 210 255
17.7845 -242.669 0 210 210 210 255
17.8278 -219.805 0 210 210 210 255
17.8663 -198.076 0 210 210 210 255
17.9008 -177.399 0 210 210 210 255
17.9313 -157.696 0 210 210 210 255
17.9583 -138.889 0 210 210 210 255
17.9819 -120.907 0 210 210 210 255
18.0025 -103.678 0 210 210 210 255
18.0204 -87.1357 0 210 210 210 255
18.0358 -71.2166 0 210 210 210 255
18.049 -55.8597 0 210 210 210 255
18.06 -41.0074 0 210 210 210 255
18.0695 -26.6053 0 210 210 210 255
18.0773 -12.6019 0 210 210 210 255
18.0837 1.05084 0 210 210 210 255
18.0886 14.3983 0 210 210 210 255
18.0926 27.4824 0 210 210 210 255
18.0958 40.342 0 210 210 210 255
18.0983 53.013 0 210 210 210 255
18.1002 65.5282 0 210 210 210 255
18.1013 77.9169 0 210 210 210 255
18.1023 90.2057 0 210 210 210 255
18.1028 102.418 0 210 210 210 255
18.1031 114.574 0 210 210 210 255
18.1033 126.691 0 210 210 210 255
18.1035 138.783 0 210 210 210 255
18.1035 150.86 0 210 210 210 255
18.1035 162.931 0 210 210 210 255
18.1035 175 0 210 210 210 255
29.8193 -263.259 0 210 210 210 255
29.8656 -239.632 0 210 210 210 255
29.9071 -217.179 0 210 210 210 255
29.9443 -195.818 0 210 210 210 255
29.9774 -175.469 0 210 210 210 255
30.0068 -156.056 0 210 210 210 255
30.0328 -137.507 0 210 210 210 255
30.0555 -119.749 0 210 210 210 255
30.0754 -102.717 0 210 210 210 255
30.0925 -86.3452 0 210 210 210 255
30.1074 -70.5727 0 210 210 210 255
30.12 -55.341 0 210 210 210 255
30.1307 -40.5947 0 210 210 210 255
30.1396 -26.2815 0 210 210 210 255
30.1471 -12.3518 0 210 210 210 255
30.1531 1.24072 0 210 210 210 255
30.1581 14.5394 0 210 210 210 255
30.162 27.5848 0 210 210 210 255
30.1651 40.4145 0 210 210 210 255
30.1674 53.0624 0 210 210 210 255
30.1691 65.5606 0 210 210 210 255
30.1704 77.9372 0 210 210 210 255
30.1713 90.2176 0 210 210 210 255
30.1718 102.425 0 210 210 210 255
30.1721 114.577 0 210 210 210 255
30.1723 126.692 0 210 210 210 255
30.1724 138.783 0 210 210 210 255
30.1724 150.86 0 210 210 210 255
30.1724 162.931 0 210 210 210 255
30.1724 175 0 210 210 210 255
41.9088 -258.144 0 210 210 210 255
41.9523 -235.186 0 210 210 210 255
41.9913 -213.335 0 210 210 210 255
42.0266 -192.513 0 210 210 210 255
42.0577 -172.644 0 210 210 210 255
42.0854 -153.657 0 210 210 210 255
42.1097 -135.483 0 210 210 210 255
42.1312 -118.055 0 210 210 210 255
42.1499 -101.31 0 210 210 210 255
42.1661 -85.188 0 210 210 210 255
42.1801 -69.6301 0 210 210 210 255
42.1921 -54.5818 0 210 210 210 255
42.202 -39.9907 0 210 210 210 255
42.2105 -25.8074 0 210 210 210 255
42.2176 -11.9857 0 210 210 210 255
42.2234 1.51849 0 210 210 210 255
42.2278 14.7459 0 210 210 210 255
42.2317 27.7349 0 210 210 210 255
42.2346 40.5203 0 210 210 210 255
42.2367 53.1348 0 210 210 210 255
42.2382 65.608 0 210 210 210 255
42.2394 77.9668 0 210 210 210 255
42.2402 90.235 0 210 210 210 255
42.2408 102.434 0 210 210 210 255
42.241 114.582 0 210 210 210 255
42.2412 126.694 0 210 210 210 255
42.2414 138.784 0 210 210 210 255
42.2413 150.86 0 210 210 210 255
42.2413 162.931 0 210 210 210 255
42.2413 175 0 210 210 210 255
54.0041 -251.561 0 210 210 210 255
54.0441 -229.466 0 210 210 210 255
54.0803 -208.389 0 210 210 210 255
54.1124 -188.259 0 210 210 210 255
54.1412 -169.008 0 210 210 210 255
54.1667 -150.569 0 210 210 210 255
54.1892 -132.878 0 210 210 210 255
54.209 -115.875 0 210 210 210 255
54.2261 -99.5002 0 210 210 210 255
54.2411 -83.6988 0 210 210 210 255
54.254 -68.4172 0 210 210 210 255
54.2649 -53.6047 0 210 210 210 255
54.2741 -39.2133 0 210 210 210 255
54.282 -25.1974 0 210 210 210 255
54.2885 -11.5144 0 210 210 210 255
54.2937 1.8761 0 210 210 210 255
54.2979 15.0118 0 210 210 210 255
54.3013 27.9279 0 210 210 210 255
54.3041 40.6566 0 210 210 210 255
54.3061 53.2278 0 210 210 210 255
54.3076 65.6691 0 210 210 210 255
54.3086 78.0049 0 210 210 210 255
54.3093 90.2573 0 210 210 210 255
54.3098 102.446 0 210 210 210 255
54.3101 114.588 0 210 210 210 255
54.3102 126.696 0 210 210 210 255
54.3102 138.784 0 210 210 210 255
54.3104 150.86 0 210 210 210 255
54.3102 162.931 0 210 210 210 255
54.3104 175 0 210 210 210 255
66.1044 -243.714 0 210 210 210 255
66.1404 -222.646 0 210 210 210 255
66.1727 -202.493 0 210 210 210 255
66.2018 -183.189 0 210 210 210 255
66.2275 -164.674 0 210 210 210 255
66.2504 -146.888 0 210 210 210 255
66.2708 -129.773 0 210 210 210 255
66.2882 -113.276 0 210 210 210 255
66.3038 -97.3425 0 210 210 210 255
66.3172 -81.9236 0 210 210 210 255
66.3287 -66.9713 0 210 210 210 255
66.3385 -52.44 0 210 210 210 255
66.3467 -38.2867 0 210 210 210 255
66.3538 -24.4704 0 210 210 210 255
66.3596 -10.9528 0 210 210 210 255
66.3644 2.30231 0 210 210 210 255
66.3682 15.3287 0 210 210 210 255
66.3712 28.1579 0 210 210 210 255
66.3735 40.819 0 210 210 210 255
66.3755 53.3389 0 210 210 210 255
66.3768 65.7419 0 210 210 210 255
66.3777 78.0503 0 210 210 210 255
66.3784 90.2839 0 210 210 210 255
66.3789 102.46 0 210 210 210 255
66.3791 114.594 0 210 210 210 255
66.3793 126.699 0 210 210 210 255
66.3793 138.785 0 210 210 210 255
66.3793 150.86 0 210 210 210 255
66.3793 162.931 0 210 210 210 255
66.3793 175 0 210 210 210 255
78.2089 -234.857 0 210 210 210 255
78.2402 -214.95 0 210 210 210 255
78.2682 -195.838 0 210 210 210 255
78.2935 -177.467 0 210 210 210 255
78.316 -159.783 0 210 210 210 255
78.3359 -142.733 0 210 210 210 255
78.3535 -126.269 0 210 210 210 255
78.369 -110.342 0 210 210 210 255
78.3824 -94.9072 0 210 210 210 255
78.3941 -79.9201 0 210 210 210 255
78.4042 -65.3394 0 210 210 210 255
78.4127 -51.1255 0 210 210 210 255
78.4201 -37.2408 0 210 210 210 255
78.4261 -23.6498 0 210 210 210 255
78.4311 -10.3188 0 210 210 210 255
78.4353 2.78339 0 210 210 210 255
78.4386 15.6863 0 210 210 210 255
78.4414 28.4175 0 210 210 210 255
78.4433 41.0023 0 210 210 210 255
78.4449 53.4641 0 210 210 210 255
78.446 65.824 0 210 210 210 255
78.4468 78.1016 0 210 210 210 255
78.4476 90.314 0 210 210 210 255
78.4478 102.477 0 210 210 210 255
78.448 114.602 0 210 210 210 255
78.4482 126.703 0 210 210 210 255
78.4482 138.786 0 210 210 210 255
78.4482 150.861 0 210 210 210 255
78.4482 162.931 0 210 210 210 255
78.4483 175 0 210 210 210 255
90.316 -225.297 0 210 210 210 255
90.3425 -206.641 0 210 210 210 255
90.3661 -188.654 0 210 210 210 255
90.3872 -171.29 0 210 210 210 255
90.4061 -154.503 0 210 210 210 255
90.4229 -138.249 0 210 210 210 255
90.4376 -122.487 0 210 210 210 255
90.4506 -107.176 0 210 210 210 255
90.462 -92.2784 0 210 210 210 255
90.4717 -77.7574 0 210 210 210 255
90.4802 -63.5778 0 210 210 210 255
90.4874 -49.7065 0 210 210 210 255
90.4935 -36.1118 0 210 210 210 255
90.4987 -22.7639 0 210 210 210 255
90.5029 -9.63464 0 210 210 210 255
90.5063 3.30261 0 210 210 210 255
90.5092 16.0723 0 210 210 210 255
90.5113 28.6978 0 210 210 210 255
90.5131 41.2003 0 210 210 210 255
90.5144 53.5992 0 210 210 210 255
90.5154 65.9127 0 210 210 210 255
90.5161 78.157 0 210 210 210 255
90.5165 90.3465 0 210 210 210 255
90.5169 102.494 0 210 210 210 255
90.5171 114.611 0 210 210 210 255
90.5172 126.706 0 210 210 210 255
90.5172 138.787 0 210 210 210 255
90.5173 150.861 0 210 210 210 255
90.5173 162.931 0 210 210 210 255
90.5173 175 0 210 210 210 255
102.425 -215.388 0 210 210 210 255
102.446 -198.03 0 210 210 210 255
102.465 -181.209 0 210 210 210 255
102.482 -164.888 0 210 210 210 255
102.497 -149.03 0 210 210 210 255
102.51 -133.601 0 210 210 210 255
102.522 -118.566 0 210 210 210 255
102.533 -103.894 0 210 210 210 255
102.542 -89.5539 0 210 210 210 255
102.55 -75.5159 0 210 210 210 255
102.556 -61.7522 0 210 210 210 255
102.562 -48.2359 0 210 210 210 255
102.567 -34.9418 0 210 210 210 255
102.571 -21.8458 0 210 210 210 255
102.575 -8.92529 0 210 210 210 255
102.577 3.84082 0 210 210 210 255
102.58 16.4725 0 210 210 210 255
102.581 28.9883 0 210 210 210 255
102.583 41.4053 0 210 210 210 255
102.584 53.7393 0 210 210 210 255
102.585 66.0046 0 210 210 210 255
102.585 78.2144 0 210 210 210 255
102.586 90.3801 0 210 210 210 255
102.586 102.512 0 210 210 210 255
102.586 114.62 0 210 210 210 255
102.586 126.71 0 210 210 210 255
102.586 138.789 0 210 210 210 255
102.586 150.861 0 210 210 210 255
102.586 162.931 0 210 210 210 255
102.586 175 0 210 210 210 255
114.533 -205.539 0 210 210 210 255
114.549 -189.471 0 210 210 210 255
114.563 -173.809 0 210 210 210 255
114.576 -158.525 0 210 210 210 255
114.588 -143.591 0 210 210 210 255
114.598 -128.981 0 210 210 210 255
114.607 -114.669 0 210 210 210 255
114.615 -100.632 0 210 210 210 255
114.622 -86.8457 0 210 210 210 255
114.628 -73.2879 0 210 210 210 255
114.633 -59.9375 0 210 210 210 255
114.637 -46.7741 0 210 210 210 255
114.641 -33.7787 0 210 210 210 255
114.644 -20.9332 0 210 210 210 255
114.646 -8.2204 0 210 210 210 255
114.648 4.37573 0 210 210 210 255
114.65 16.8702 0 210 210 210 255
114.652 29.277 0 210 210 210 255
114.653 41.6092 0 210 210 210 255
114.653 53.8785 0 210 210 210 255
114.654 66.0959 0 210 210 210 255
114.654 78.2714 0 210 210 210 255
114.655 90.4136 0 210 210 210 255
114.655 102.53 0 210 210 210 255
114.655 114.628 0 210 210 210 255
114.655 126.713 0 210 210 210 255
114.655 138.79 0 210 210 210 255
114.655 150.861 0 210 210 210 255
114.655 162.931 0 210 210 210 255
114.655 175 0 210 210 210 255
126.639 -196.208 0 210 210 210 255
126.651 -181.362 0 210 210 210 255
126.66 -166.797 0 210 210 210 255
126.669 -152.496 0 210 210 210 255
126.677 -138.437 0 210 210 210 255
126.684 -124.604 0 210 210 210 255
126.691 -110.977 0 210 210 210 255
126.696 -97.5415 0 210 210 210 255
126.701 -84.2798 0 210 210 210 255
126.705 -71.1769 0 210 210 210 255
126.708 -58.2181 0 210 210 210 255
126.711 -45.3891 0 210 210 210 255
126.714 -32.6768 0 210 210 210 255
126.716 -20.0685 0 210 210 210 255
126.718 -7.55249 0 210 210 210 255
126.72 4.88257 0 210 210 210 255
126.721 17.2471 0 210 210 210 255
126.722 29.5507 0 210 210 210 255
126.722 41.8024 0 210 210 210 255
126.723 54.0105 0 210 210 210 255
126.723 66.1826 0 210 210 210 255
126.724 78.3254 0 210 210 210 255
126.724 90.4453 0 210 210 210 255
126.724 102.547 0 210 210 210 255
126.724 114.636 0 210 210 210 255
126.724 126.716 0 210 210 210 255
126.724 138.791 0 210 210 210 255
126.724 150.862 0 210 210 210 255
126.724 162.931 0 210 210 210 255
126.724 175 0 210 210 210 255
138.741 -187.903 0 210 210 210 255
138.748 -174.144 0 210 210 210 255
138.754 -160.557 0 210 210 210 255
138.76 -147.13 0 210 210 210 255
138.765 -133.85 0 210 210 210 255
138.769 -120.708 0 210 210 210 255
138.773 -107.691 0 210 210 210 255
138.776 -94.7908 0 210 210 210 255
138.779 -81.9962 0 210 210 210 255
138.781 -69.2982 0 210 210 210 255
138.784 -56.6878 0 210 210 210 255
138.785 -44.1565 0 210 210 210 255
138.787 -31.6961 0 210 210 210 255
138.788 -19.299 0 210 210 210 255
138.789 -6.95801 0 210 210 210 255
138.79 5.33362 0 210 210 210 255
138.791 17.5824 0 210 210 210 255
138.792 29.7941 0 210 210 210 255
138.792 41.9742 0 210 210 210 255
138.792 54.1279 0 210 210 210 255
138.793 66.2596 0 210 210 210 255
138.793 78.3735 0 210 210 210 255
138.793 90.4734 0 210 210 210 255
138.793 102.563 0 210 210 210 255
138.793 114.644 0 210 210 210 255
138.793 126.719 0 210 210 210 255
138.793 138.792 0 210 210 210 255
138.793 150.862 0 210 210 210 255
138.793 162.931 0 210 210 210 255
138.793 175 0 210 210 210 255
150.837 -181.184 0 210 210 210 255
150.841 -168.305 0 210 210 210 255
150.843 -155.509 0 210 210 210 255
150.846 -142.789 0 210 210 210 255
150.848 -130.14 0 210 210 210 255
150.85 -117.556 0 210 210 210 255
150.852 -105.033 0 210 210 210 255
150.854 -92.5655 0 210 210 210 255
150.855 -80.1488 0 210 210 210 255
150.857 -67.7783 0 210 210 210 255
150.857 -55.4498 0 210 210 210 255
150.858 -43.1593 0 210 210 210 255
150.859 -30.9027 0 210 210 210 255
150.86 -18.6765 0 210 210 210 255
150.86 -6.47711 0 210 210 210 255
150.861 5.69861 0 210 210 210 255
150.861 17.8538 0 210 210 210 255
150.861 29.9911 0 210 210 210 255
150.862 42.1133 0 210 210 210 255
150.862 54.2229 0 210 210 210 255
150.862 66.322 0 210 210 210 255
150.862 78.4125 0 210 210 210 255
150.862 90.4963 0 210 210 210 255
150.862 102.575 0 210 210 210 255
150.862 114.65 0 210 210 210 255
150.862 126.722 0 210 210 210 255
150.862 138.792 0 210 210 210 255
150.862 150.862 0 210 210 210 255
150.862 162.931 0 210 210 210 255
150.862 175 0 210 210 210 255
162.924 -176.663 0 210 210 210 255
162.925 -164.376 0 210 210 210 255
162.926 -152.111 0 210 210 210 255
162.927 -139.867 0 210 210 210 255
162.927 -127.642 0 210 210 210 255
162.928 -115.435 0 210 210 210 255
162.928 -103.244 0 210 210 210 255
162.929 -91.068 0 210 210 210 255
162.929 -78.9055 0 210 210 210 255
162.93 -66.7555 0 210 210 210 255
162.93 -54.6167 0 210 210 210 255
162.93 -42.4881 0 210 210 210 255
162.93 -30.3688 0 210 210 210 255
162.93 -18.2575 0 210 210 210 255
162.931 -6.1535 0 210 210 210 255
162.931 5.94415 0 210 210 210 255
162.931 18.0363 0 210 210 210 255
162.931 30.1237 0 210 210 210 255
162.931 42.2069 0 210 210 210 255
162.931 54.2869 0 210 210 210 255
162.931 66.3639 0 210 210 210 255
162.931 78.4387 0 210 210 210 255
162.931 90.5116 0 210 210 210 255
162.931 102.583 0 210 210 210 255
162.931 114.654 0 210 210 210 255
162.931 126.724 0 210 210 210 255
162.931 138.793 0 210 210 210 255
162.931 150.862 0 210 210 210 255
162.931 162.931 0 210 210 210 255
162.931 175 0 210 210 210 255
175 -175 0 210 210 210 255
175 -162.931 0 210 210 210 255
175 -150.862 0 210 210 210 255
175 -138.793 0 210 210 210 255
175 -126.724 0 210 210 210 255
175 -114.655 0 210 210 210 255
175 -102.586 0 210 210 210 255
175 -90.5172 0 210 210 210 255
175 -78.4483 0 210 210 210 255
175 -66.3793 0 210 210 210 255
175 -54.3104 0 210 210 210 255
175 -42.2414 0 210 210 210 255
175 -30.1724 0 210 210 210 255
175 -18.1035 0 210 210 210 255
175 -6.03448 0 210 210 210 255
175 6.03448 0 210 210 210 255
175 18.1035 0 210 210 210 255
175 30.1724 0 210 210 210 255
175 42.2414 0 210 210 210 255
175 54.3104 0 210 210 210 255
175 66.3793 0 210 210 210 255
175 78.4483 0 210 210 210 255
175 90.5172 0 210 210 210 255
175 102.586 0 210 210 210 255
175 114.655 0 210 210 210 255
175 126.724 0 210 210 210 255
175 138.793 0 210 210 210 255
175 150.862 0 210 210 210 255
175 162.931 0 210 210 210 255
175 175 0 210 210 210 255
